HIERARCHY
ROOT Hips
{
	OFFSET 0.000000 0.000000 0.000000
	CHANNELS 6 Xposition Yposition Zposition Zrotation Yrotation Xrotation 
	JOINT LHipJoint
	{
		OFFSET 0.000000 0.000000 0.000000
		CHANNELS 3 Zrotation Yrotation Xrotation
		JOINT LeftUpLeg
		{
			OFFSET 1.363060 -1.794630 0.839290
			CHANNELS 3 Zrotation Yrotation Xrotation
			JOINT LeftLeg
			{
				OFFSET 2.448110 -6.726130 0.000000
				CHANNELS 3 Zrotation Yrotation Xrotation
				JOINT LeftFoot
				{
					OFFSET 2.562200 -7.039590 0.000000
					CHANNELS 3 Zrotation Yrotation Xrotation
					JOINT LeftToeBase
					{
						OFFSET 0.157640 -0.433110 2.322550
						CHANNELS 3 Zrotation Yrotation Xrotation
						End Site
						{
							OFFSET 0.000000 0.000000 0.000000
						}
					}
				}
			}
		}
	}
	JOINT RHipJoint
	{
		OFFSET 0.000000 0.000000 0.000000
		CHANNELS 3 Zrotation Yrotation Xrotation
		JOINT RightUpLeg
		{
			OFFSET -1.305520 -1.794630 0.839290
			CHANNELS 3 Zrotation Yrotation Xrotation
			JOINT RightLeg
			{
				OFFSET -2.542530 -6.985550 0.000000
				CHANNELS 3 Zrotation Yrotation Xrotation
				JOINT RightFoot
				{
					OFFSET -2.568260 -7.056230 0.000000
					CHANNELS 3 Zrotation Yrotation Xrotation
					JOINT RightToeBase
					{
						OFFSET -0.164730 -0.452590 2.363150
						CHANNELS 3 Zrotation Yrotation Xrotation
						End Site
						{
							OFFSET 0.000000 0.000000 0.000000
						}
					}
				}
			}
		}
	}
}
MOTION
Frames: 25
Frame Time: 0.008333
-20.995724 17.344785 -0.707798 11.794707 77.777072 47.494686 -8.484133 -1.327595 3.502379 -9.385151 -9.271102 -71.598244 1.178404 3.418739 65.988281 3.007898 14.546459 -3.432291 1.841500 0.000000 -28.955000 12.332946 -3.185684 1.281735 -0.355385 -6.647866 -10.272829 1.752197 0.178482 -1.731500 0.173969 4.024795 23.164024 1.801000 0.000001 -70.192400
-20.755227 17.416901 -0.704835 12.915342 78.199706 48.713226 -8.307835 -1.184407 3.771624 -9.434969 -10.007235 -71.251408 0.979374 3.190897 62.978604 2.981962 14.337314 -2.860160 2.022600 -0.000000 -29.499200 12.515344 -3.249240 1.081810 -0.439420 -7.671703 -9.807301 1.714249 0.134352 -2.122969 0.056207 3.601048 24.820258 1.727400 -0.000001 -66.631700
-20.513509 17.477357 -0.699490 14.271585 78.684367 50.169530 -8.122149 -1.021005 4.047407 -9.507436 -10.762268 -70.838758 0.776686 2.958701 59.901830 2.962103 14.165768 -2.389490 2.186000 0.000000 -30.132200 12.689297 -3.302955 0.896566 -0.482969 -8.565153 -9.338373 1.660982 0.106815 -2.286167 -0.083209 2.615855 25.683328 1.283400 0.000000 -62.853701
-20.270416 17.525570 -0.692331 15.755275 79.228086 51.764252 -7.937546 -0.844649 4.324342 -9.577466 -11.494315 -70.394789 0.570718 2.728335 56.808182 2.940180 13.992010 -1.999431 2.330400 -0.000000 -30.935400 12.839849 -3.357037 0.743981 -0.450246 -9.216140 -8.829623 1.585254 0.096484 -2.274658 -0.249503 1.018123 25.839304 0.452100 -0.000000 -59.120200
-20.026660 17.561620 -0.683845 17.427050 79.810644 53.541588 -7.751626 -0.655317 4.592458 -9.672761 -12.194612 -69.906441 0.359689 2.501532 53.735293 2.912078 13.803548 -1.668667 2.456900 -0.000000 -31.802800 12.973017 -3.403532 0.613007 -0.364599 -9.660650 -8.295696 1.488199 0.095810 -2.021954 -0.438744 -0.999444 25.317804 -0.625000 -0.000000 -55.490800
-19.782881 17.585624 -0.674366 19.287799 80.416725 55.495406 -7.565713 -0.455114 4.845994 -9.807855 -12.841116 -69.378175 0.142744 2.281209 50.724679 2.871798 13.580204 -1.362727 2.568000 0.000000 -32.730800 13.091013 -3.437950 0.499883 -0.230347 -9.924115 -7.772209 1.374666 0.097952 -1.454374 -0.647343 -3.215414 24.173768 -1.772000 0.000000 -51.956200
-19.539461 17.598557 -0.665732 21.101317 81.061515 57.394180 -7.406882 -0.265952 5.059271 -9.933635 -13.362058 -68.827143 -0.076864 2.075587 47.842335 2.808508 13.273577 -1.064822 2.653100 0.000000 -33.651600 13.157513 -3.477082 0.431861 0.030903 -9.786312 -7.135533 1.229505 0.108801 -0.784412 -0.901573 -5.723127 22.733728 -2.996400 0.000000 -49.014400
-19.296898 17.600657 -0.657114 23.078737 81.707313 59.421593 -7.256060 -0.074856 5.238330 -10.127747 -13.783430 -68.219606 -0.301340 1.882558 45.104700 2.724008 12.905842 -0.743951 2.721900 0.000000 -34.545200 13.209634 -3.500153 0.368353 0.338292 -9.531390 -6.559434 1.082309 0.105498 0.294889 -1.161841 -8.004924 20.913798 -3.982900 0.000000 -46.293600
-19.055367 17.592914 -0.649790 25.041891 82.366452 61.399220 -7.134060 0.100694 5.363842 -10.357518 -14.053517 -67.560619 -0.525937 1.708438 42.566894 2.613132 12.450103 -0.402160 2.763300 0.000000 -35.361800 13.223272 -3.522764 0.322952 0.748377 -9.046737 -5.975474 0.929933 0.086887 1.643423 -1.433104 -10.098792 19.008397 -4.761200 0.000000 -44.239700
-18.814981 17.575973 -0.644099 26.959958 83.035966 63.287140 -7.045649 0.255062 5.428565 -10.627077 -14.157917 -66.839895 -0.746883 1.555732 40.265906 2.477532 11.907735 -0.053357 2.771100 -0.000000 -36.066100 13.199021 -3.549908 0.287502 1.263967 -8.387815 -5.407035 0.783202 0.043719 3.271466 -1.695602 -11.884285 17.173304 -5.301500 0.000000 -43.054801
-18.575601 17.550128 -0.640028 28.844682 83.707761 65.087738 -6.989825 0.387107 5.431013 -10.944202 -14.098303 -66.045580 -0.960408 1.425425 38.229845 2.323466 11.294548 0.271443 2.740300 0.000000 -36.627200 13.144884 -3.584844 0.249350 1.866653 -7.650860 -4.893220 0.655406 -0.033158 5.210770 -1.920602 -13.227935 15.503429 -5.584200 0.000001 -42.769500
-18.337073 17.515446 -0.637567 30.687568 84.376923 66.789994 -6.966223 0.495046 5.372081 -11.302252 -13.879525 -65.176468 -1.162038 1.317961 36.485919 2.159583 10.628969 0.520029 2.664900 0.000000 -37.011400 13.066510 -3.632740 0.201711 2.541620 -6.905835 -4.455127 0.553190 -0.147987 7.443633 -2.086684 -14.077353 14.099004 -5.643300 0.000000 -43.527700
-18.099011 17.471619 -0.636418 32.520585 85.033026 68.426284 -6.969009 0.581413 5.258964 -11.694964 -13.522976 -64.236302 -1.347802 1.232107 35.054448 1.997907 9.942517 0.627607 2.542700 -0.000000 -37.193600 12.975430 -3.694933 0.136744 3.254006 -6.239532 -4.125015 0.481567 -0.302534 9.973845 -2.173899 -14.372828 12.967178 -5.494501 0.000000 -45.159500
-17.860721 17.417861 -0.635442 34.511164 85.639620 70.170433 -6.977458 0.661700 5.110704 -12.139024 -13.084751 -63.229205 -1.517997 1.163526 33.930427 1.854924 9.292525 0.528393 2.382400 -0.000000 -37.146200 12.902330 -3.763874 0.044300 3.911813 -5.778524 -3.969282 0.439917 -0.497630 12.842175 -2.165813 -14.042875 12.054549 -5.130600 -0.000000 -47.426000
-17.621848 17.353699 -0.635160 36.554536 86.214517 71.932780 -6.999602 0.726539 4.930923 -12.581402 -12.568245 -62.195401 -1.665925 1.113131 33.156138 1.738186 8.686036 0.138283 2.177000 0.000000 -36.855900 12.834783 -3.844869 -0.062315 4.542576 -5.464186 -3.950321 0.416116 -0.721395 15.942419 -2.083708 -13.253838 11.352634 -4.644300 0.000000 -50.115000
-17.381921 17.278198 -0.634579 38.812390 86.728496 73.891357 -7.016967 0.790156 4.742248 -13.026692 -12.036419 -61.162631 -1.792426 1.077611 32.731865 1.661499 8.173270 -0.603491 1.935601 -0.000000 -36.320200 12.796503 -3.926569 -0.184524 5.072830 -5.359332 -4.118235 0.401551 -0.967560 19.305949 -1.937430 -12.048541 10.729842 -4.042100 -0.000000 -52.735700
-17.140900 17.191048 -0.633983 41.285092 87.196979 76.056914 -7.033466 0.847218 4.548795 -13.439254 -11.502699 -60.169987 -1.894276 1.059511 32.697252 1.628722 7.752516 -1.758538 1.651100 -0.000000 -35.546000 12.778498 -4.007211 -0.313326 5.525949 -5.408728 -4.431303 0.381859 -1.223120 22.843773 -1.762508 -10.649658 10.153845 -3.413300 0.000000 -55.202200
-16.898484 17.091497 -0.632369 44.205944 87.585834 78.685082 -7.030132 0.915476 4.377036 -13.835974 -11.041286 -59.256178 -1.974496 1.057679 33.045376 1.650698 7.467596 -3.343514 1.329200 -0.000000 -34.556000 12.803173 -4.071182 -0.447938 5.832081 -5.649090 -4.947799 0.347639 -1.481640 26.612855 -1.576326 -9.150361 9.478869 -2.774500 -0.000001 -57.071201
-16.655131 16.979961 -0.630178 47.664620 87.910345 81.870080 -7.013338 0.991230 4.228241 -14.197378 -10.661638 -58.455150 -2.031892 1.077890 33.807961 1.726457 7.301418 -5.365633 0.957500 -0.000000 -33.378000 12.858455 -4.114761 -0.583745 6.022786 -6.024236 -5.625224 0.288386 -1.733675 30.546044 -1.410300 -7.772477 8.695035 -2.205700 0.000000 -58.462000
-16.411327 16.857051 -0.627405 51.859572 88.161226 85.817208 -6.982518 1.080647 4.110900 -14.531793 -10.393389 -57.791793 -2.068340 1.124773 34.984636 1.856006 7.252828 -7.789239 0.529000 0.000000 -32.053301 12.943470 -4.128847 -0.720906 6.089319 -6.518109 -6.462041 0.197662 -1.974430 34.636275 -1.281463 -6.651712 7.763959 -1.741200 -0.000000 -59.412899
-16.167861 16.724081 -0.624385 56.955023 88.331106 90.692328 -6.945135 1.186245 4.027793 -14.848654 -10.250648 -57.278727 -2.085540 1.203732 36.561238 2.034518 7.309698 -10.545786 0.038200 -0.000000 -30.637101 13.049291 -4.107029 -0.861041 6.035622 -7.105813 -7.445880 0.072347 -2.201582 38.868117 -1.200751 -5.891237 6.672984 -1.399000 0.000000 -59.950600
-15.925677 16.583173 -0.621624 63.055686 88.409600 96.594777 -6.915155 1.306647 3.975958 -15.160422 -10.234563 -56.907599 -2.085486 1.318894 38.500122 2.251943 7.452763 -13.537367 -0.514200 0.000000 -29.204700 13.161520 -4.045952 -1.008888 5.868416 -7.764937 -8.553750 -0.087236 -2.415679 43.214278 -1.173241 -5.548606 5.436100 -1.175800 -0.000000 -60.158401
-15.685676 16.437020 -0.619778 70.128034 88.378747 103.483805 -6.910633 1.435770 3.949540 -15.483056 -10.340204 -56.650498 -2.070492 1.470526 40.734786 2.493895 7.660335 -16.643722 -1.117699 -0.000000 -27.850000 13.263118 -3.947061 -1.170453 5.591809 -8.477448 -9.763981 -0.277133 -2.621086 47.644191 -1.198606 -5.628001 4.080649 -1.049000 0.000000 -60.077700
-15.449060 16.288920 -0.619481 77.940432 88.216033 111.119192 -6.949021 1.561333 3.939863 -15.831738 -10.558228 -56.460888 -2.042991 1.653059 43.172757 2.742594 7.906258 -19.735031 -1.751900 0.000000 -26.679300 13.338565 -3.818315 -1.352146 5.209959 -9.229893 -11.056068 -0.490489 -2.826562 52.118969 -1.272232 -6.086855 2.647772 -0.984800 0.000000 -59.721800
-15.216446 16.142559 -0.621310 86.069236 87.899188 119.069833 -7.041044 1.666480 3.936797 -16.216045 -10.875431 -56.280745 -2.005472 1.854551 45.704008 2.979383 8.159582 -22.686878 -2.388100 0.000000 -25.797600 13.379129 -3.673658 -1.558594 4.731116 -10.009930 -12.413391 -0.719550 -3.044580 56.593474 -1.385428 -6.844415 1.185010 -0.947401 0.000000 -59.072500
